/* XPM */
static char *a687079e86a44fae84cecd149b51c3dcWfWya0c5kQh6HHHN[] = {
/* columns rows colors chars-per-pixel */
"16 16 10 1 ",
"  c None",
". c #90625D",
"X c #AA7959",
"o c #B09643",
"O c #BFA954",
"+ c #C49A6C",
"@ c #D4C169",
"# c #EAE178",
"$ c #DCB98A",
"% c #F4F4A0",
/* pixels */
"                ",
"  ..        ..  ",
" .@@........@@. ",
".###+$$$$$$+###.",
".##+++$$$$+++##.",
".##++++++++++##.",
".##++++++++++##.",
".%############%.",
".o%%%%%%%%%%%%o.",
".Oo....#@....oO.",
".OOXXXX@@XXXXOO.",
".@OXXXXXXXXXXO@.",
".@@XXXXXXXXXX@@.",
" .@@@@@@@@@@@@. ",
"  ............  ",
"                "
};
