/* XPM */
static char *exit_open1679993832[] = {
/* columns rows colors chars-per-pixel */
"16 16 9 1 ",
"  c None",
". c #6B4B5B",
"X c #90625D",
"o c #AA7959",
"O c #B09643",
"+ c #BFA954",
"@ c #D4C169",
"# c #EAE178",
"$ c #F4F4A0",
/* pixels */
"  XX        XX  ",
" X@@XXXXXXXX@@X ",
"X$#############X",
"XO$$####@#####OX",
"XO.....@@.....OX",
"XO............OX",
"XO............OX",
"XOO..........OOX",
"X+OOOOOOOOOOOO+X",
"X@+XXXXXXXXXX+@X",
"X@@oooooooooo@@X",
"X@@oooooooooo@@X",
"X@@oooooooooo@@X",
" X@@@@@@@@@@@@X ",
"  XXXXXXXXXXXX  ",
"                "
};
