/* XPM */
static char *enemy_up1680004873[] = {
/* columns rows colors chars-per-pixel */
"16 16 12 1 ",
"  c None",
". c #000B20",
"X c #00143C",
"o c #002161",
"O c #00308D",
"+ c #0042C3",
"@ c #0057FF",
"# c #3D7FFF",
"$ c #5A9AFF",
"% c #7FC6FF",
"& c #ADE7FF",
"* c #E0FCFF",
/* pixels */
"                ",
"                ",
"      #####     ",
"    @@%%%%%@@   ",
"   @$%&&&&&%$@  ",
"  +$%&&***&&%$+ ",
"  +%&&*****&&%+ ",
" O%&&&*****&&&%O",
" O%&&&&***&&&&%O",
" O%&&X&&&&&X&&%O",
" O%&&.&&&&&.&&%O",
" O%%&&&&&&&&&%%O",
" O$%%&&&&&&&%%$O",
"  o$%%%%%%%%%$o ",
"   XXXXXXXXXXX  ",
"                "
};
