/* XPM */
static char *grass11674134884[] = {
/* columns rows colors chars-per-pixel */
"16 16 2 1 ",
"  c #A4C263",
". c #C0D470",
/* pixels */
"................",
"................",
"................",
"............ ...",
"........... ....",
"........... ....",
".... ...........",
"..... ..........",
"..... .... .....",
"......... ......",
"......... ......",
"................",
"................",
"................",
"................",
"................"
};
